# xmcd
#
# Track frame offsets:
#	150
#	141536
#	178221
#	200314
#	217637
#	226470
#	264507
#
# Disc length: 3994 seconds
#
# Revision: 1
# Processed by: cddbd v1.5.2PL0 Copyright (c) Steve Scherf et al.
# Submitted via: audiograbber 1.83.01
#
DISCID=640f9807
DTITLE=Grateful Dead - 72-11-19 Hofheinz Pavilion, Houston TX
DYEAR=1900
DGENRE=
TTITLE0=Dark Star > WRS Prelude
TTITLE1=Mississippi Half-Step
TTITLE2=Around and Around
TTITLE3=Big Railroad Blues
TTITLE4=Tuning
TTITLE5=Sugar Magnolia
TTITLE6=GDTRFB
EXTD=
EXTT0=
EXTT1=
EXTT2=
EXTT3=
EXTT4=
EXTT5=
EXTT6=
PLAYORDER=
